<svg xmlns="http://www.w3.org/2000/svg" width="21" height="22" viewBox="0 0 21 22" fill="none">
  <path d="M1 18.7778V4.55556C1 3.311 1 2.68871 1.2634 2.21336C1.49509 1.79521 1.86479 1.45526 2.31952 1.24221C2.83647 1 3.51321 1 4.86667 1H16.4667C17.8201 1 18.4969 1 19.0138 1.24221C19.4685 1.45526 19.8383 1.79521 20.0699 2.21336C20.3333 2.68871 20.3333 3.311 20.3333 4.55556V16.5556H3.41667C2.08198 16.5556 1 17.5504 1 18.7778ZM1 18.7778C1 20.0051 2.08198 21 3.41667 21H20.3333M7.04167 5.44444H14.2917M7.04167 9.88889H14.2917M19.125 16.5556V21" stroke="black" stroke-linecap="round" stroke-linejoin="round"/>
</svg>