<svg width="48" height="48" viewBox="0 0 48 48" fill="none" xmlns="http://www.w3.org/2000/svg">
<g clip-path="url(#clip0_71_173)">
<path d="M36.75 0H11.25C5.0368 0 0 5.0368 0 11.25V36.75C0 42.9632 5.0368 48 11.25 48H36.75C42.9632 48 48 42.9632 48 36.75V11.25C48 5.0368 42.9632 0 36.75 0Z" fill="#00599C"/>
<path d="M20.7673 39.4719C12.211 39.4719 5.25 32.511 5.25 23.9548C5.25 15.3985 12.211 8.4375 20.7673 8.4375C26.2882 8.4375 31.4376 11.4086 34.2051 16.1912L27.4896 20.0773C26.1045 17.6833 23.5284 16.1961 20.7673 16.1961C16.4891 16.1961 13.0086 19.6766 13.0086 23.9548C13.0086 28.2328 16.4891 31.7134 20.7673 31.7134C23.5286 31.7134 26.1047 30.2261 27.4899 27.8318L34.2054 31.7177C31.4379 36.5008 26.2886 39.4719 20.7673 39.4719Z" fill="white"/>
<path d="M36.2844 23.0927H34.5602V21.3684H32.8363V23.0927H31.1121V24.8167H32.8363V26.541H34.5602V24.8167H36.2844V23.0927Z" fill="white"/>
<path d="M42.75 23.0927H41.0258V21.3684H39.3019V23.0927H37.5776V24.8167H39.3019V26.541H41.0258V24.8167H42.75V23.0927Z" fill="white"/>
</g>
<defs>
<clipPath id="clip0_71_173">
<rect width="48" height="48" fill="white"/>
</clipPath>
</defs>
</svg>
