<svg width="48" height="48" viewBox="0 0 48 48" fill="none" xmlns="http://www.w3.org/2000/svg">
<g clip-path="url(#clip0_71_205)">
<path d="M23.996 48C23.354 48 22.714 47.832 22.152 47.506L16.28 44.032C15.404 43.542 15.832 43.368 16.12 43.266C17.29 42.86 17.526 42.766 18.776 42.058C18.906 41.984 19.078 42.012 19.212 42.092L23.724 44.77C23.888 44.86 24.118 44.86 24.268 44.77L41.858 34.618C42.022 34.524 42.126 34.336 42.126 34.142V13.842C42.126 13.644 42.02 13.458 41.852 13.358L24.27 3.21401C24.108 3.12001 23.892 3.12001 23.728 3.21401L6.15 13.36C5.98 13.458 5.872 13.65 5.872 13.842V34.142C5.872 34.336 5.98 34.52 6.15 34.612L10.968 37.396C13.582 38.704 15.184 37.164 15.184 35.616V15.574C15.184 15.29 15.412 15.068 15.696 15.068H17.926C18.204 15.068 18.436 15.292 18.436 15.574V35.616C18.436 39.106 16.536 41.106 13.228 41.106C12.212 41.106 11.41 41.106 9.176 40.004L4.56 37.35C3.42 36.692 2.716 35.46 2.716 34.142V13.842C2.716 12.524 3.422 11.292 4.56 10.636L22.15 0.472012C23.264 -0.157988 24.742 -0.157988 25.846 0.472012L43.434 10.636C44.574 11.294 45.282 12.524 45.282 13.842V34.142C45.282 35.46 44.574 36.688 43.434 37.35L25.846 47.506C25.286 47.832 24.648 48 23.996 48ZM38.198 27.986C38.198 24.186 35.63 23.174 30.224 22.46C24.762 21.738 24.206 21.364 24.206 20.086C24.206 19.03 24.676 17.62 28.722 17.62C32.336 17.62 33.668 18.398 34.216 20.834C34.264 21.064 34.474 21.232 34.71 21.232H36.992C37.134 21.232 37.268 21.17 37.364 21.07C37.46 20.962 37.512 20.824 37.498 20.678C37.144 16.482 34.356 14.526 28.722 14.526C23.706 14.526 20.714 16.642 20.714 20.192C20.714 24.042 23.69 25.106 28.504 25.582C34.264 26.146 34.71 26.988 34.71 28.12C34.71 30.086 33.132 30.924 29.426 30.924C24.772 30.924 23.748 29.756 23.404 27.44C23.364 27.192 23.152 27.01 22.898 27.01H20.624C20.342 27.01 20.116 27.234 20.116 27.516C20.116 30.48 21.728 34.012 29.426 34.012C35.002 34.014 38.198 31.82 38.198 27.986Z" fill="black"/>
</g>
<defs>
<clipPath id="clip0_71_205">
<rect width="48" height="48" fill="white"/>
</clipPath>
</defs>
</svg>
